<svg xmlns="http://www.w3.org/2000/svg" viewBox="0 0 30 30" xml:space="preserve" width="30" height="30">
  <path d="M26.25 12.188h-.938V1.875c.563 0 .938-.375.938-.938s-.375-.938-.938-.938h-7.5c-.563 0-.938.375-.938.938s.375.938.938.938v10.313h-.938c-1.594 0-2.813 1.219-2.813 2.813v2.813h15v-2.813c0-1.594-1.219-2.813-2.813-2.813m-6.56-10.313h3.75v10.313h-3.75zm-5.625 25.313c0 1.594 1.219 2.813 2.813 2.813h9.375c1.594 0 2.813-1.219 2.813-2.813v-7.5H14.063zM0 18.75v8.438c0 1.594 1.219 2.813 2.813 2.813h1.875V15.938H2.813C1.219 15.938 0 17.157 0 18.751m6.563-2.813h5.625v14.063H6.563zm4.688-5.625H7.5c-.563 0-.938.375-.938.938v2.813h1.875v-1.875h1.875v1.875h1.875v-2.813c0-.563-.375-.938-.938-.938"/>
</svg>