<svg xmlns="http://www.w3.org/2000/svg" viewBox="0 0 30 30" xml:space="preserve" width="30" height="30">
  <path d="M28.721 11.011a1.5 1.5 0 0 0-.413.058l-1.457.401-1.54-3.751C24.85 6.595 23.485 5.68 22.27 5.68h-1.025V2.57a.99.99 0 0 0-.991-.991H9.747a.99.99 0 0 0-.991.991v3.11H7.71c-1.215 0-2.58.915-3.041 2.039L3.13 11.465l-1.438-.396a1.6 1.6 0 0 0-.413-.058c-.741 0-1.279.567-1.279 1.347v.797c0 .911.741 1.652 1.652 1.652h.106l-.22.536C1.109 16.388.76 18.156.76 19.285v7.484c0 .911.741 1.652 1.652 1.652h1.986c.911 0 1.652-.741 1.652-1.652V24.93h17.878v1.839c0 .911.741 1.652 1.652 1.652h1.986c.911 0 1.652-.741 1.652-1.652v-7.484c0-1.129-.349-2.898-.778-3.942l-.22-.536h.127c.911 0 1.652-.741 1.652-1.652v-.797c0-.78-.538-1.347-1.279-1.347M18.982 2.9a.04.04 0 0 1 .04-.04h.764a.04.04 0 0 1 .04.04v2.749q-.002.02-.017.03h-.808a.04.04 0 0 1-.017-.03zm-5.477-.04h.918c.022 0 .046.017.054.037l1.089 2.738.998-1.235a.06.06 0 0 0 .003-.064l-.958-1.443c-.012-.018-.004-.033.018-.033h.849c.022 0 .049.015.06.034l.494.801c.011.019.03.019.042 0l.494-.801a.08.08 0 0 1 .06-.034h.849c.022 0 .03.015.018.033l-.959 1.443a.06.06 0 0 0 .003.064l1.017 1.258q.01.012.006.022h-.901a.1.1 0 0 1-.029-.024l-.558-.893c-.012-.019-.03-.019-.042 0l-.557.893a.1.1 0 0 1-.029.024h-1.698a.05.05 0 0 1-.026-.028l-.187-.573a.06.06 0 0 0-.052-.038h-1.04a.06.06 0 0 0-.053.037l-.202.574a.06.06 0 0 1-.026.028h-.816a.03.03 0 0 1-.005-.027l1.111-2.755a.06.06 0 0 1 .055-.037M10.819 5.65V3.466a.04.04 0 0 0-.04-.04h-.918a.04.04 0 0 1-.04-.04V2.9a.04.04 0 0 1 .04-.04h2.764a.04.04 0 0 1 .04.04v.486a.04.04 0 0 1-.04.04h-.923a.04.04 0 0 0-.04.04V5.65q-.002.02-.017.03h-.808a.04.04 0 0 1-.017-.03m-6.521 8.237 2.34-5.701c.276-.673 1.097-1.223 1.824-1.223h13.055c.727 0 1.548.55 1.824 1.223l2.34 5.701c.276.673-.093 1.223-.82 1.223H5.118c-.727 0-1.096-.55-.82-1.223m5.287 7.341a.663.663 0 0 1-.661.661H4.457a.663.663 0 0 1-.661-.661v-2.119c0-.363.297-.661.661-.661h4.467c.363 0 .661.297.661.661zm16.556 0a.663.663 0 0 1-.661.661h-4.467a.663.663 0 0 1-.661-.661v-2.119c0-.363.297-.661.661-.661h4.467c.363 0 .661.297.661.661z"/>
  <path d="M14.296 4.475c.022 0 .033-.016.024-.036l-.329-.76c-.009-.02-.023-.02-.032 0l-.349.761c-.009.02.001.036.023.036z"/>
</svg>