<svg xmlns="http://www.w3.org/2000/svg" width="30" height="31.875" viewBox="0 0 30 31.875" fill="none">
  <path d="M25.226 4.327h-1.463V2.869c0-.876-.583-1.461-1.459-1.461-.878 0-1.463.585-1.463 1.463V4.33H9.156V2.869c0-.876-.585-1.461-1.463-1.461-.876 0-1.459.585-1.459 1.463V4.33H4.771C2.291 4.327.392 6.227.392 8.711v1.461H29.61V8.709c0-2.482-1.899-4.382-4.382-4.382M.39 26.242c0 2.482 1.899 4.382 4.384 4.382h20.453c2.482 0 4.382-1.899 4.382-4.382V13.093H.39zm21.915-10.226c.876 0 1.461.583 1.461 1.461 0 .876-.585 1.461-1.463 1.461-.876 0-1.461-.585-1.461-1.463 0-.876.585-1.459 1.463-1.459m0 5.843c.876 0 1.461.585 1.461 1.463 0 .876-.585 1.461-1.463 1.461-.876 0-1.461-.585-1.461-1.463 0-.876.585-1.461 1.463-1.461M15 16.016c.876 0 1.461.583 1.461 1.461 0 .876-.585 1.461-1.463 1.461-.876 0-1.459-.585-1.459-1.463 0-.876.583-1.459 1.461-1.459m0 5.843c.876 0 1.461.585 1.461 1.463 0 .876-.585 1.461-1.463 1.461-.876 0-1.459-.585-1.459-1.463 0-.876.583-1.461 1.461-1.461m-7.305-5.843c.876 0 1.461.583 1.461 1.461 0 .876-.585 1.461-1.463 1.461-.876 0-1.459-.585-1.459-1.463 0-.876.583-1.459 1.461-1.459m0 5.843c.876 0 1.461.585 1.461 1.463 0 .876-.585 1.461-1.463 1.461-.876 0-1.459-.585-1.459-1.463 0-.876.583-1.461 1.461-1.461" fill="#393D46"/>
</svg>