<svg xmlns="http://www.w3.org/2000/svg" width="354" height="302">
  <path d="M0 0h354v302H0z" fill="#F6F6F6"/>
  <path d="m178 16 3.691 1c12.911 3.64 24.03 9.294 34.309 18l2.012 1.574c17.063 13.845 26.943 37.41 29.707 58.824 1.354 17.345-.703 31.882-5.719 48.602h-71l.387 23.063c.056 4.849.109 9.697.15 14.546.066 7.682.143 15.361.293 23.041.12 6.2.185 12.396.214 18.596q.03 3.531.119 7.061c.34 13.916-.417 23.987-9.404 35.078C160 268 160 268 156 268c-1.577-1.655-1.577-1.655-3.11-4.004l-1.762-2.65-1.878-2.909a5786 5786 0 0 0-4.031-6.074l-2.102-3.185c-3.378-5.071-6.872-10.06-10.367-15.053l-4.047-5.805-1.924-2.76c-2.44-3.51-4.862-7.034-7.279-10.56-4.47-6.52-8.982-13.012-13.5-19.5-13.485-19.375-13.485-19.375-17.877-25.85a647 647 0 0 0-3.103-4.51c-16.046-23.943-19.38-51.111-14.586-79.284C73.485 70.469 80.442 55.603 91 44l2.46-2.742C100.246 34.076 107.458 28.879 116 24l2.598-1.492C135.91 13.673 159.22 10.444 178 16" fill="#010101"/>
  <path d="M185 158h112v112H185z" fill="#F4F4F4"/>
  <path d="M185 158h112v112H185zm10 9v94h93v-94h-42v59c4.648-3.984 9.12-7.938 13.438-12.25l1.638-1.602c1.349-1.343 2.642-2.741 3.924-4.148v-2l7 6c-5.666 6.928-12.03 13.142-18.375 19.438l-3.387 3.373Q246.123 238.909 242 243c-6.928-5.666-13.142-12.03-19.437-18.375l-3.374-3.387Q215.091 217.123 211 213l5-6c5.583 4.544 10.612 9.543 15.643 14.68A318 318 0 0 0 236 226h1v-59z" fill="#040404"/>
  <path d="M179.25 76.688C185.185 81.433 189.049 87.69 191 95c1.063 11.32.552 20.057-6.762 29.203-6.507 7.128-13.188 10.919-22.857 11.386-8.158.123-14.58-.714-21.381-5.589l-1.754-1.164c-7.123-5.249-10.55-13.398-12.246-21.836-1.147-9.332 1.853-17.284 7.203-24.86 12.32-14.677 30.468-16.025 46.047-5.453" fill="#F4F4F4"/>
</svg>