<svg width="30" height="30" viewBox="-0.094 0 0.713 0.713" xmlns="http://www.w3.org/2000/svg" class="cf-icon-svg">
  <path d="M.464.199.379.285v.001l.065.239a.03.03 0 0 1-.008.03L.415.576A.013.013 0 0 1 .394.573L.306.414.278.386.204.46a.1.1 0 0 1-.028.019l.017.054a.03.03 0 0 1-.007.03L.179.57a.02.02 0 0 1-.025 0L.115.531.114.53.084.501.083.5.044.461a.02.02 0 0 1 0-.025L.051.429a.03.03 0 0 1 .03-.007l.054.016A.1.1 0 0 1 .154.41L.228.336.2.308.041.22A.013.013 0 0 1 .038.199L.059.178A.03.03 0 0 1 .089.17l.24.065H.33L.416.149C.43.135.477.111.491.125S.481.186.467.2"/>
</svg>