<svg xmlns="http://www.w3.org/2000/svg" width="30" height="30" viewBox="0 0 30 30" fill="none">
  <path d="M15 .375A14.625 14.625 0 1 0 29.625 15 14.64 14.64 0 0 0 15 .375M15 24a1.688 1.688 0 1 1 0-3.375A1.688 1.688 0 0 1 15 24m1.125-6.852v.102a1.125 1.125 0 1 1-2.25 0v-1.125A1.125 1.125 0 0 1 15 15c1.86 0 3.375-1.266 3.375-2.813S16.86 9.375 15 9.375s-3.375 1.266-3.375 2.813v.562a1.125 1.125 0 1 1-2.25 0v-.563c0-2.79 2.523-5.063 5.625-5.063s5.625 2.271 5.625 5.063c0 2.445-1.935 4.489-4.5 4.96" fill="#393D46"/>
</svg>