<svg xmlns="http://www.w3.org/2000/svg" width="314" height="283">
  <path d="M0 0h314v283H0z" fill="#F6F6F6"/>
  <path d="M188 32c3.508 2.837 6.785 5.837 10 9l2.344 2.305c19.957 20.845 24.193 47.314 23.953 74.988-.221 8.036-1.78 15.094-4.297 22.707l-1 4h-66l.387 21.566c.056 4.535.109 9.07.15 13.604.066 7.183.143 14.365.293 21.547.12 5.796.185 11.591.214 17.39q.03 3.301.119 6.602c.372 14.252-.946 23.212-10.85 33.824-1.916 2.14-3.45 4.492-5 6.904l-1.387 2.122L136 270c-3.509-1.433-5.033-3.06-7.11-6.2l-1.762-2.63-1.878-2.858a6439 6439 0 0 0-4.031-6.019l-2.102-3.147c-3.397-5.048-6.881-10.034-10.367-15.021A2859 2859 0 0 1 95.5 215c-4.47-6.52-8.982-13.012-13.5-19.5-13.522-19.427-13.522-19.427-17.873-25.84a930 930 0 0 0-3.143-4.59c-10.993-16.49-16.42-35.285-16.234-55.007l.025-3.212C45.16 80.006 55.655 56 74.773 37.285 85.046 28.153 97.59 21.162 111 18l2.46-.832C138.127 9.429 167.592 17.084 188 32" fill="#010101"/>
  <path d="M167 159h112v112H167z" fill="#F2F2F2"/>
  <path d="M167 159h112v112H167zm9 9v94h42v-59c-5.307 4.484-5.307 4.484-10.309 9.21l-1.572 1.583-1.556 1.582-1.64 1.652Q200.96 219.01 199 221c-3.785-1.514-4.007-2.014-6-6l29-29c4.497 3.855 8.787 7.646 12.934 11.836l1.584 1.588q2.462 2.473 4.92 4.951l3.373 3.387q4.098 4.115 8.189 8.238l-5 6c-5.583-4.544-10.612-9.543-15.643-14.68A318 318 0 0 0 228 203h-1v59h43v-94z" fill="#010101"/>
  <path d="M151.344 74.516c4.847 2.708 8.188 5.806 11.344 10.359l1.761 2.492c4.727 8.025 4.805 17.498 2.969 26.48-2.845 8.198-8.992 15.709-16.73 19.716-8.55 3.333-18.31 4.076-27.16 1.378C113.896 130.45 108.016 123.74 104 114c-2.656-7.969-2.013-16.978 1.563-24.5 9.828-17.068 27.683-23.039 45.78-14.984" fill="#F5F5F5"/>
</svg>