<svg xmlns="http://www.w3.org/2000/svg" width="120" height="120" viewBox="0 0 120 120">
    <defs>
        <clipPath id="a">
        <path data-name="Rectangle 18" fill="#fff" stroke="#707070" d="M-271 2321h120v120h-120z"/>
        </clipPath>
        <filter id="b" x=".725" y="0" width="118.55" height="120" filterUnits="userSpaceOnUse">
        <feGaussianBlur stdDeviation="3.648"/>
        </filter>
    </defs>
    <g data-name="Mask Group 7" transform="translate(271 -2321)" clip-path="url(#a)">
        <g data-name="Group 118">
        <g transform="translate(-270.999 2321.001)" filter="url(#b)">
            <path data-name="Path 514" d="M104.053 72.797A49.42 49.42 0 0 0 79.762 7.913a47.97 47.97 0 0 0-63.82 24.7 49.425 49.425 0 0 0 24.292 64.884 47.97 47.97 0 0 0 63.819-24.7" fill="#f6f6f6"/>
        </g>
        <g data-name="Group 98">
            <path data-name="Path 515" d="M-211.615 2357.798a1.11 1.11 0 1 0 .984-1.988l-13.939-6.906a1.1 1.1 0 0 0-.779-.077l-6.111 1.638a1.109 1.109 0 0 0-.467 1.884l9.252 8.57a1.109 1.109 0 1 0 1.507-1.626l-7.779-7.207 3.768-1.01Z"/>
            <path data-name="Path 516" d="m-247.938 2362.161-5.358 1.436a1.11 1.11 0 0 0-.521 1.83l9.678 10.285c-1.038.959-2.068 2.268-1.71 3.475 1.055 3.571 12.5 1.115 12.618 1.083l9.527-2.552a1.11 1.11 0 0 0-.575-2.143l-9.527 2.554c-2.927.785-8.609 1.1-9.84.411a7.8 7.8 0 0 1 1.792-1.854 1.11 1.11 0 0 0 .134-1.638l-9.211-9.79 3.21-.86 11.605 4.6a1.1 1.1 0 0 0 .7.04l44.4-11.9c5.887-1.576 10.3-1.158 14.762 1.4a.86.86 0 0 1 .308.849c-.146 1.394-2 3.549-6.713 5.034-.785.248-13.788 3.707-18.732 5.018a1.1 1.1 0 0 0-.584.382l-18.144 22.843-3.083.826 6.713-19.554a1.11 1.11 0 1 0-2.1-.721l-7.4 21.517a1.11 1.11 0 0 0 1.049 1.469 1 1 0 0 0 .292-.037l5.447-1.46a1.1 1.1 0 0 0 .584-.381l18.144-22.843c2.586-.686 17.549-4.659 18.475-4.953 7.207-2.272 8.134-5.865 8.246-6.913a2.97 2.97 0 0 0-1.413-3.011c-5.015-2.872-9.93-3.356-16.435-1.612l-44.049 11.8-11.6-4.605a1.1 1.1 0 0 0-.692-.032Z"/>
            <path data-name="Path 517" d="M-239.514 2408.361h57.027a1.109 1.109 0 1 0 0-2.218h-57.027a1.109 1.109 0 1 0 0 2.218"/>
        </g>
        </g>
    </g>
</svg>