<svg xmlns="http://www.w3.org/2000/svg" width="120" height="120" viewBox="0 0 120 120">
  <defs>
    <clipPath id="a">
      <path data-name="Rectangle 21" fill="#fff" stroke="#707070" d="M-271 2621h120v120h-120z"/>
    </clipPath>
    <filter id="b" x=".726" y="0" width="118.548" height="120" filterUnits="userSpaceOnUse">
      <feGaussianBlur stdDeviation="3.648"/>
    </filter>
  </defs>
  <g data-name="Mask Group 9" transform="translate(271 -2621)" clip-path="url(#a)">
    <g data-name="Group 120">
      <g transform="translate(-271.003 2621.001)" filter="url(#b)">
        <path data-name="Path 473" d="M104.056 72.8A49.42 49.42 0 0 0 79.765 7.917a47.97 47.97 0 0 0-63.818 24.7 49.425 49.425 0 0 0 24.292 64.884 47.97 47.97 0 0 0 63.817-24.7Z" fill="#f6f6f6"/>
      </g>
      <g data-name="Group 92">
        <path data-name="Path 474" d="M-182.486 2703.224h-57.027a1.109 1.109 0 1 0 0 2.218h57.027a1.109 1.109 0 0 0 0-2.218"/>
      </g>
      <g data-name="Group 93">
        <path data-name="Path 475" d="M-204.346 2659.943a1.109 1.109 0 0 0 1.732-1.385l-9.715-12.151a1.1 1.1 0 0 0-.673-.4l-6.231-1.1a1.107 1.107 0 0 0-1.219 1.509l4.761 11.674a1.109 1.109 0 0 0 2.053-.838l-4-9.819 3.842.677Z"/>
        <path data-name="Path 476" d="m-217.18 2670.989-15.8 16.375a1.11 1.11 0 0 0 .605 1.861l5.557.979a1 1 0 0 0 .191.016 1.1 1.1 0 0 0 .5-.117l26.1-13.032c2.627.47 17.873 3.193 18.837 3.318 7.49.987 9.851-1.878 10.4-2.78a2.97 2.97 0 0 0-.007-3.325c-3.333-4.724-7.588-7.238-14.216-8.408l-44.908-7.918-8.573-9.076a1.1 1.1 0 0 0-.614-.331l-5.462-.963a1.107 1.107 0 0 0-1.245 1.439l4.423 13.412c-1.344.429-2.831 1.181-3.018 2.426-.555 3.68 10.861 6.3 10.978 6.315l9.714 1.712a1.11 1.11 0 0 0 1.284-.9 1.11 1.11 0 0 0-.9-1.284l-9.713-1.712c-2.987-.527-8.265-2.643-9.091-3.787a7.7 7.7 0 0 1 2.4-.922 1.11 1.11 0 0 0 .814-1.43l-4.21-12.764 3.275.583 8.573 9.076a1.1 1.1 0 0 0 .613.331l45.27 7.982c6 1.058 9.825 3.3 12.789 7.5a.86.86 0 0 1-.079.9c-.73 1.2-3.308 2.372-8.208 1.727-.817-.105-14.063-2.466-19.1-3.368a1.12 1.12 0 0 0-.69.1l-26.1 13.034-3.143-.554 14.35-14.884a1.11 1.11 0 1 0-1.6-1.538Z"/>
      </g>
    </g>
  </g>
</svg>