<svg xmlns="http://www.w3.org/2000/svg" viewBox="0 0 30 30" xml:space="preserve" width="30" height="30">
  <path d="m17.289 20.451 5.339-6.824c-.743-.185-1.519-.214-2.253-.214-1.702 0-3.09.652-4.126 1.937-.815 1.011-1.255 2.214-1.607 3.18-.156.427-.369 1.012-.49 1.157-.474.532-.99.509-1.092.499a1.212 1.212 0 0 0-.702 2.32c.498.178 2.23.339 3.606-1.205.423-.474.67-1.153.957-1.939q.182-.503.368-.952zm7.811-5.17a4.1 4.1 0 0 0-1.142-1.098l-5.654 7.226h5.455v-3.204c.291 1.087.505 2.632.664 4.746.048.637.58 1.122 1.208 1.122q.046 0 .092-.003a1.214 1.214 0 0 0 1.119-1.301c-.304-4.05-.793-6.15-1.742-7.489"/>
  <path d="M17.289 22.8h6.47v1.901h-6.47zM24.2 7.108V4.883h-8.691l1.043 2.225zm-7.648 1.947a3.824 3.824 0 0 0 7.649 0V7.851h-7.649zM6.22 24.731a.386.386 0 0 0 .386.386h7.385a.386.386 0 0 0 .386-.386v-1.384H6.22zM4.367 15.49v7.385a.386.386 0 0 0 .386.386h1.384v-8.156H4.753a.386.386 0 0 0-.386.386"/>
  <path d="M23.772 0H6.228A6.235 6.235 0 0 0 0 6.228v17.544A6.235 6.235 0 0 0 6.228 30h17.544A6.235 6.235 0 0 0 30 23.771V6.228A6.235 6.235 0 0 0 23.772 0m5.089 23.771a5.095 5.095 0 0 1-5.089 5.09H6.228a5.095 5.095 0 0 1-5.089-5.09V6.228a5.095 5.095 0 0 1 5.089-5.089h17.544a5.095 5.095 0 0 1 5.089 5.089z"/>
</svg>