<svg xmlns="http://www.w3.org/2000/svg" width="30" height="28.333" viewBox="0 0 30 28.333" fill="none">
  <path d="M16.188 15.417c1.905 0 3.45 1.583 3.45 3.54l-.003 1.767c.237 4.337-3.017 6.5-9.048 6.5-6.013 0-9.337-2.135-9.337-6.437v-1.83c0-1.955 1.545-3.542 3.45-3.542zm9.2 0c1.903 0 3.448 1.583 3.448 3.54l-.002 1.243c.208 3.89-2.667 5.84-7.92 5.84q-1.07 0-2.01-.107c1.233-1.17 1.895-2.758 1.893-4.767l-.017-.508.005-1.7a4.76 4.76 0 0 0-1.558-3.543zM10.447 1.25c3.175 0 5.75 2.643 5.75 5.903s-2.575 5.903-5.75 5.903-5.75-2.643-5.75-5.903S7.273 1.25 10.45 1.25m11.498 2.362c2.54 0 4.6 2.113 4.6 4.722 0 2.607-2.06 4.722-4.6 4.722s-4.601-2.116-4.601-4.723 2.06-4.722 4.6-4.722" fill="#393D46"/>
</svg>